<svg xmlns="http://www.w3.org/2000/svg" viewBox="-5292 -28 134 178.7">
  <defs>
    <style>
      .cls-1 {
        fill: #e85b5b;
      }
    </style>
  </defs>
  <g id="file" transform="translate(-5356.033 -27.999)">
    <g id="Group_3416" data-name="Group 3416" transform="translate(89.824 57.245)">
      <g id="Group_3415" data-name="Group 3415">
        <path id="Path_12621" data-name="Path 12621" class="cls-1" d="M216.164,164.017H142.111a4.184,4.184,0,0,0,0,8.368h74.053a4.184,4.184,0,0,0,0-8.368Z" transform="translate(-137.927 -164.017)"/>
      </g>
    </g>
    <g id="Group_3418" data-name="Group 3418" transform="translate(89.824 82.492)">
      <g id="Group_3417" data-name="Group 3417">
        <path id="Path_12622" data-name="Path 12622" class="cls-1" d="M216.164,236.355H142.111a4.184,4.184,0,0,0,0,8.368h74.053a4.184,4.184,0,0,0,0-8.368Z" transform="translate(-137.927 -236.355)"/>
      </g>
    </g>
    <g id="Group_3420" data-name="Group 3420" transform="translate(64.035 -0.001)">
      <g id="Group_3419" data-name="Group 3419">
        <path id="Path_12623" data-name="Path 12623" class="cls-1" d="M198.027,36.1a4.18,4.18,0,0,0-1.218-2.847l-32-32A4.171,4.171,0,0,0,161.823,0H72.85a8.822,8.822,0,0,0-8.812,8.812l0,104.481c0,.037,0,.072.006.109a6.234,6.234,0,0,0,2.961,5.158l14.433,8.958a14.558,14.558,0,0,0,15.445,0l9.906-6.148a6.239,6.239,0,0,1,6.619,0l9.906,6.148a14.554,14.554,0,0,0,15.445,0l9.906-6.148a6.24,6.24,0,0,1,6.619,0l9.906,6.148a14.554,14.554,0,0,0,15.445,0l14.434-8.958a6.234,6.234,0,0,0,2.96-5.158c0-.036.006-.072.006-.109l0-77.08A1.074,1.074,0,0,0,198.027,36.1ZM166.006,14.287h0l17.742,17.742h-17.3a.441.441,0,0,1-.44-.44v-17.3Zm23.66,97.777-13.444,8.344a6.239,6.239,0,0,1-6.619,0L159.7,114.26a14.559,14.559,0,0,0-15.445,0l-9.906,6.148a6.24,6.24,0,0,1-6.619,0l-9.906-6.148a14.554,14.554,0,0,0-15.445,0l-9.906,6.148a6.24,6.24,0,0,1-6.619,0l-13.444-8.345,0-103.252a.445.445,0,0,1,.444-.444h84.789V31.589a8.818,8.818,0,0,0,8.809,8.809h23.221Z" transform="translate(-64.038 0.001)"/>
      </g>
    </g>
    <g id="Group_3422" data-name="Group 3422" transform="translate(64.033 131.854)">
      <g id="Group_3421" data-name="Group 3421">
        <path id="Path_12624" data-name="Path 12624" class="cls-1" d="M198.031,384.124c0-.011,0-.021,0-.032s0-.021,0-.032a6.276,6.276,0,0,0-9.586-5.332L176.076,386.4a5.973,5.973,0,0,1-6.335,0l-10.19-6.325a14.285,14.285,0,0,0-15.16,0L134.2,386.4a5.974,5.974,0,0,1-6.335,0l-10.19-6.325a14.288,14.288,0,0,0-15.16,0L92.325,386.4a5.972,5.972,0,0,1-6.335,0l-12.369-7.676a6.277,6.277,0,0,0-9.586,5.332c0,.011,0,.021,0,.032s0,.021,0,.032l0,31.693a8.822,8.822,0,0,0,8.812,8.812H189.221a8.822,8.822,0,0,0,8.812-8.812Zm-8.81,32.136H72.847a.444.444,0,0,1-.444-.443v-28l9.174,5.694a14.291,14.291,0,0,0,15.16,0l10.19-6.325a5.972,5.972,0,0,1,6.335,0l10.19,6.325a14.29,14.29,0,0,0,15.161,0l10.19-6.325a5.97,5.97,0,0,1,6.335,0l10.19,6.325a14.29,14.29,0,0,0,15.16,0l9.174-5.694v28A.443.443,0,0,1,189.222,416.26Z" transform="translate(-64.033 -377.784)"/>
      </g>
    </g>
  </g>
</svg>
